<svg width="482" height="481" viewBox="0 0 482 481" fill="none" xmlns="http://www.w3.org/2000/svg">
<path d="M129.483 465.212C88.1616 441.526 63.1822 390.438 39.8047 337.63C17.0591 284.678 -3.45268 229.864 0.488571 171.486C3.65097 112.611 31.7514 49.3865 78.9686 20.3339C126.965 -8.2206 194.224 -1.96051 258.236 10.4517C321.616 23.0084 381.601 41.0746 420.615 80.8402C459.776 121.249 478.451 182.569 481.225 244.144C484.146 306.362 471.799 368.69 436.514 409.214C401.082 449.096 342.564 466.532 285.105 476.965C227.5 486.754 170.32 489.685 129.483 465.212Z" fill="url(#paint0_linear_3030_2166)"/>
<defs>
<linearGradient id="paint0_linear_3030_2166" x1="416.596" y1="-63.2201" x2="36.1625" y2="502.68" gradientUnits="userSpaceOnUse">
<stop stop-color="#F87537"/>
<stop offset="1" stop-color="#FBA81F"/>
</linearGradient>
</defs>
</svg>
